<?xml version="1.0" encoding="utf-8"?>
<svg width="83.396" height="51" viewBox="0 0 83.396 51" fill="none" xmlns="http://www.w3.org/2000/svg">
  <defs>
    <filter color-interpolation-filters="sRGB" x="-69.396" y="-25.512" width="71.396" height="27.512" id="filter_1">
      <feFlood flood-opacity="0" result="BackgroundImageFix_1" />
      <feColorMatrix type="matrix" values="0 0 0 0 0 0 0 0 0 0 0 0 0 0 0 0 0 0 1 0" in="SourceAlpha" />
      <feOffset dx="0" dy="4" />
      <feGaussianBlur stdDeviation="2" />
      <feColorMatrix type="matrix" values="0 0 0 0 0 0 0 0 0 0 0 0 0 0 0 0 0 0 0.631 0" />
      <feBlend mode="normal" in2="BackgroundImageFix_1" result="Shadow_2" />
      <feBlend mode="normal" in="SourceGraphic" in2="Shadow_2" result="Shape_3" />
    </filter>
  </defs>
  <g id="logo2" transform="translate(4.198 0)">
    <g id="logo" transform="translate(8.157 0)">
      <g id="logo_img">
        <g fill="#003478" fill-rule="evenodd">
          <path id="Oval" d="M0 25.5C0 11.4167 12.8046 0 28.6 0C44.3953 0 57.2 11.4167 57.2 25.5C57.2 39.5833 44.3953 51 28.6 51C12.8046 51 0 39.5833 0 25.5Z" />
          <path d="M28.6 0C12.8046 0 0 11.4167 0 25.5C0 39.5833 12.8046 51 28.6 51C44.3953 51 57.2 39.5833 57.2 25.5C57.2 11.4167 44.3953 0 28.6 0ZM9.04224 42.7848Q1 35.6143 0.999998 25.5Q1 15.3857 9.04224 8.21518Q17.1346 1 28.6 1Q40.0654 1 48.1577 8.21518Q56.2 15.3857 56.2 25.5Q56.2 35.6143 48.1577 42.7848Q40.0654 50 28.6 50Q17.1346 50 9.04224 42.7848Z" fill="#90C418" fill-rule="evenodd" />
        </g>
        <path id="Path" d="M10.8938 0.393422C10.7929 0.210901 10.1807 0.855593 9.89104 0.998659C9.65169 1.11688 9.3436 1.14499 9.09722 1.27877C8.66558 1.51312 7.88609 1.41628 8.06112 2.0505C8.19115 2.52174 10.9445 3.8217 10.2588 4.00249C9.72094 4.14431 9.21476 3.92407 8.67108 4.16143C8.46723 4.25043 7.63969 4.79739 7.49285 4.61559C7.12599 4.16137 6.88385 0.668576 5.47071 2.90532C5.22554 3.29339 3.42743 4.4473 3.99984 4.85762C4.73942 5.38777 6.11633 4.83084 6.43974 5.77319C6.91305 7.15232 3.80221 6.9247 3.2477 7.86901C2.82488 8.58906 3.74996 9.86508 3.31476 10.7214C1.59675 14.1021 -0.856625 15.391 0.298244 19.3247C1.96642 25.0068 8.14014 17.9329 10.15 21.5719C11.7729 24.5103 11.1828 28.9473 12.03 32.3012C12.1416 32.7431 12.8471 35.5924 13.6093 35.5924C14.1189 35.5924 15.7092 32.7301 16.0325 32.271C18.954 28.1228 20.6933 22.5451 20.1856 17.4936C19.9042 14.6938 18.9258 11.6694 17.6956 9.11756C16.9536 7.57824 15.8664 6.25812 14.9464 4.79718C14.5083 4.10145 13.9854 3.03004 13.2586 2.56509C12.8248 2.28758 12.5452 1.62271 12.0383 1.44526C11.7577 1.34701 11.6338 0.929614 11.4787 0.703747C10.6874 0.0929427 10.503 0.393422 10.6011 0" fill="#90C418" fill-rule="evenodd" transform="translate(36.571 6.128)" />
        <path id="Path" d="M0.208885 3.34983C-0.0997276 3.20999 2.24737 0.216554 3.9355 1.32985C5.25521 2.20016 5.61617 3.68239 6.27528 2.80532C7.06404 1.75576 3.841 1.4789 5.047 0.315784C6.95416 -1.52355 6.80608 5.36388 8.79898 3.25918C9.06428 2.979 9.01125 1.74854 9.63451 1.78371C9.67473 1.78598 12.1273 4.76519 11.7821 5.27946C11.4569 5.76396 8.89155 4.67694 8.45628 4.5455C7.60638 4.28886 6.4086 6.12147 5.01365 5.27946C4.27161 4.83155 4.4206 3.5913 4.00256 3.40301C3.68341 3.25926 2.42797 3.41179 2.08887 3.49367C-0.475697 3.51512 0.208885 2.70827 0 3.13801" fill="#003478" fill-rule="evenodd" transform="translate(43.254 12.75)" />
        <path id="Path" d="M2.36034e-05 12.2612C-0.00380778 12.2612 0.459271 11.3309 0.584989 11.1716C0.79005 10.9119 0.913104 10.5971 1.08652 10.3168C1.36837 9.86117 1.57637 9.30439 1.93875 8.89421C2.55683 8.19458 3.28017 7.34303 3.74365 6.54849C4.60532 5.07131 6.02338 3.47716 7.58739 2.57621C8.05014 2.30965 10.8362 0.40918 11.3477 0.563488C12.0464 0.77428 13.6678 3.38336 14.3392 2.16768C14.4467 1.97287 12.8963 -0.509696 14.8991 0.0945256C15.8978 0.395817 16.3621 0.834246 17.7735 0.117184C18.6994 -0.353249 14.9532 1.88883 16.8628 2.31907C18.3456 2.65315 18.8642 0.486797 19.9795 0.412104C21.371 0.318908 20.3837 1.58981 21.0576 1.47905C23.155 1.13434 24.9763 -1.13788 26.8314 1.60022C27.7239 2.91765 25.0443 3.53187 24.0404 3.43134C23.3859 3.3658 25.3702 1.05985 23.4138 2.12236C22.833 2.43773 21.0116 3.32338 20.4556 3.19656C19.3609 2.94683 15.8787 3.46541 15.5842 4.6947C15.3642 5.61269 16.8096 5.23463 16.8879 6.08708C16.9305 6.55133 16.175 6.59493 16.0857 6.97243C15.9429 7.57559 17.4534 8.76781 17.648 8.65972C19.3778 7.69873 20.7053 3.91208 22.5949 3.75647C23.7394 3.66222 26.9533 6.09547 26.8984 6.84371C26.8483 7.52787 25.6952 7.40104 25.6952 7.88044C25.6952 8.07698 27.3577 8.37247 26.823 8.85643C25.766 9.81324 23.7697 6.87268 22.4864 7.84237C22.3424 7.95122 22.3764 8.29871 22.4698 8.42524C22.5431 8.52461 22.5285 8.61499 22.5866 8.72016C22.6047 8.75306 22.9157 8.74651 22.8371 8.84132C22.2037 9.60609 22.069 8.28807 21.3332 8.796C19.521 10.047 19.0257 11.8748 16.9463 13.6536C16.3697 14.1469 15.6016 13.5311 15.0996 14.4405C14.8417 14.9079 14.8334 16.155 14.2221 16.3396C14.1214 16.37 13.3298 15.3186 12.8853 15.2273C12.1073 15.0674 11.2828 15.4011 10.5205 15.4542C8.83791 15.5715 6.18067 17.704 8.86606 18.5868C10.6179 19.1627 10.7197 16.6757 12.0161 17.2627C12.603 17.5284 11.7992 18.6303 11.682 18.9273C11.2416 20.044 12.7728 18.9021 12.9687 19.4344C13.1917 20.0401 13.2589 22.1687 14.498 21.8103C15.3369 21.5677 15.7155 20.6658 16.5869 20.4028C17.1651 20.2283 18.565 21.3383 19.1439 21.5604C19.6244 21.7448 20.3866 21.689 20.8737 21.7801C21.1578 21.8332 21.3989 22.0563 21.3082 21.7269C21.2413 21.4837 21.2915 21.0769 21.2915 21.2428C21.2915 21.318 21.2437 21.6671 22.035 21.8707C22.83 22.0753 22.2862 22.6804 22.6116 22.9754C23.0794 23.3996 24.3156 22.6493 24.9013 23.4142C25.4152 24.0852 24.75 24.9656 25.6952 25.6312C26.8589 26.4508 30.4547 25.3977 30.8172 27.3717C30.9844 28.2817 29.5593 33.151 28.7951 33.8486C28.0588 34.5207 26.6517 33.5104 26.3302 34.3855C26.0754 35.0791 27.0274 36.0789 26.5307 36.7539C25.5347 38.1076 23.6972 39.2717 22.4027 40.227C21.205 41.1109 25.0518 43.833 23.8148 44.729C18.8979 48.2905 18.0347 36.7315 17.5896 35.0137C17.3886 34.2378 18.156 32.7701 17.6146 32.1157C16.0122 30.1788 13.3392 30.3907 12.8853 27.1067C12.694 25.7226 14.972 24.3104 14.3559 23.1948C14.2004 22.9134 12.2436 22.8635 11.8572 22.7485C9.84261 22.1491 8.62821 20.3444 5.97466 20.0774C2.74618 19.7524 5.27268 14.4678 4.33694 12.7758C3.40094 11.0834 3.01712 14.4205 3.06694 14.781C3.08551 14.9154 3.42689 17.8657 2.99986 17.2854C2.46574 16.5595 0.24298 11.9574 0.208906 11.9512" fill="#90C418" fill-rule="evenodd" transform="translate(2.76 3.801)" />
      </g>
    </g>
    <path id="Rectangle" d="M64.5 0C69.7474 0 74 4.25258 74 9.5L74 9.5C74 14.7474 69.7474 19 64.5 19L9.5 19C4.25258 19 0 14.7474 0 9.5L0 9.5C0 4.25258 4.25258 0 9.5 0L64.5 0Z" fill="#003478" fill-opacity="0.471" transform="translate(0 16)" />
    <g filter="url(#filter_1)" transform="translate(1.802 9.668)">
      <path d="M3.32593 22.04Q1.92041 22.04 1.13184 21.2793Q0.343262 20.5185 0.343262 19.1501Q0.343262 17.7817 1.25244 17.1648Q2.16626 16.5478 3.59033 16.5478Q4.42529 16.5478 5.10718 16.6638Q5.7937 16.7751 6.3457 16.9838L6.40137 16.9838L6.40137 16.7009Q6.40137 16.2649 6.07666 16.0097Q5.75659 15.75 5.26489 15.7685Q4.78711 15.7685 4.45312 15.8288Q4.12378 15.8845 3.62744 16.019Q2.71826 16.2463 2.05029 15.9819Q1.38696 15.7129 1.14111 14.9336Q0.913818 14.1171 1.24316 13.5651Q1.57715 13.0131 2.25903 12.7116Q2.84814 12.424 3.58105 12.2385Q4.31396 12.0483 5.16748 12.0483Q7.65845 12.0483 8.82275 13.2544Q9.9917 14.4604 9.9917 17.29L9.9917 20.2356Q9.9917 21.0149 9.51855 21.5297Q9.04541 22.04 8.20581 22.04Q7.29663 22.04 6.84668 21.5297Q6.40137 21.0149 6.40137 20.2727L6.40137 19.8366L6.021 19.8366Q6.021 20.3283 5.84009 20.8432Q5.66382 21.3581 5.10254 21.7014Q4.54126 22.04 3.32593 22.04ZM3.51611 17.8791Q3.51611 18.2038 3.75269 18.3383Q3.98926 18.4682 4.78711 18.4682Q5.51074 18.4682 5.7937 18.3383Q6.0813 18.2038 6.0813 17.8791Q6.0813 17.573 5.7937 17.4524Q5.51074 17.3271 4.78711 17.3271Q3.98926 17.3271 3.75269 17.4524Q3.51611 17.573 3.51611 17.8791ZM15.4092 25.955Q14.2495 25.955 13.4424 25.7045Q12.6353 25.4587 11.8931 24.9484Q11.2483 24.4892 10.9793 23.6728Q10.7148 22.8564 11.2483 22.0214Q11.5916 21.5066 12.0183 21.3164Q12.4451 21.1262 12.8533 21.1587Q13.2615 21.1865 13.5676 21.3349Q14.231 21.6596 14.6021 21.8034Q14.9732 21.9472 15.4463 21.9472Q16.1514 21.9472 16.6338 21.4555Q17.1209 20.9592 17.1209 20.0639L17.1209 18.5239L16.7776 18.5239Q16.6431 19.5305 16.0076 20.1103Q15.3721 20.6901 14.2681 20.6901Q13.4331 20.6901 12.6353 20.2727Q11.8374 19.8552 11.3225 18.946Q10.8123 18.0322 10.8123 16.5293Q10.8123 14.3259 11.7817 13.2451Q12.7512 12.1596 14.2866 12.1596Q15.3535 12.1596 16.1096 12.874Q16.8704 13.5837 16.8704 14.8593L16.9307 14.8408L16.9307 13.7739Q16.9307 13.1106 17.3574 12.6096Q17.7842 12.104 18.698 12.104Q19.6628 12.104 20.0896 12.6096Q20.521 13.1106 20.521 13.7739L20.5396 19.7578Q20.5581 21.7338 20.0525 23.1208Q19.5515 24.5078 18.4197 25.2314Q17.2878 25.955 15.4092 25.955ZM14.0037 16.2092Q14.0037 17.2343 15.3721 17.2343Q16.2627 17.2343 16.6245 16.9885Q16.9863 16.738 16.9863 16.2092Q16.9863 15.6572 16.6152 15.4484Q16.2441 15.2397 15.3535 15.2397Q14.7041 15.2397 14.3516 15.4484Q14.0037 15.6572 14.0037 16.2092ZM23.3886 22.04Q22.4979 22.04 22.0016 21.5297Q21.5099 21.0149 21.5099 20.2356L21.5099 14.0012Q21.5099 13.1848 22.0016 12.6467Q22.4979 12.104 23.3886 12.104Q24.2838 12.104 24.757 12.6467Q25.2301 13.1848 25.2301 13.9641L25.2301 14.363L25.5919 14.363Q25.6708 13.3564 26.3527 12.7116Q27.0392 12.0669 27.9669 12.0669Q28.8993 12.0669 29.4374 12.6374Q29.9801 13.2033 29.9801 14.1543Q29.9801 15.0495 29.4652 15.6386Q28.955 16.2277 28.1571 16.2277Q27.4938 16.2277 27.0438 15.9123Q26.5985 15.5969 26.3898 15.1794Q25.7821 15.1052 25.5038 15.3046Q25.2301 15.5041 25.2301 16.0932L25.2301 20.2356Q25.2301 21.0149 24.757 21.5297Q24.2838 22.04 23.3886 22.04ZM35.075 22.0771Q32.8531 22.0771 31.5311 20.7597Q30.209 19.4377 30.209 17.0256Q30.209 15.5412 30.8167 14.4233Q31.4244 13.3007 32.5145 12.6652Q33.6092 12.0251 35.075 12.0251Q36.7078 12.0251 37.7886 12.6652Q38.8741 13.3007 39.4122 14.4233Q39.9549 15.5412 39.9549 17.0256Q39.9549 19.4377 38.7488 20.7597Q37.5428 22.0771 35.075 22.0771ZM32.4727 16.7009Q32.4727 17.29 33.0618 17.5266Q33.6509 17.7631 35.075 17.7631Q36.4991 17.7631 37.0882 17.5266Q37.6773 17.29 37.6773 16.7009Q37.6773 16.1303 37.0882 15.903Q36.4991 15.6757 35.075 15.6757Q33.6509 15.6757 33.0618 15.903Q32.4727 16.1303 32.4727 16.7009ZM42.7314 22.04Q41.8965 22.04 41.3909 21.539Q40.8899 21.0334 40.8899 20.2912L40.8899 14.0012Q40.8899 13.2033 41.363 12.656Q41.8362 12.104 42.7314 12.104Q43.6035 12.104 44.0581 12.656Q44.5173 13.2033 44.5173 14.0429L44.5173 14.9892L44.8606 14.9892Q44.8606 13.9084 45.2502 13.2822Q45.6399 12.656 46.2476 12.3823Q46.8552 12.104 47.4629 12.104Q48.9241 12.104 49.606 13.1569Q50.2925 14.2099 50.2925 16.1489L50.2925 20.2912Q50.2925 21.0334 49.7961 21.539Q49.3044 22.04 48.4695 22.04Q47.616 22.04 47.1104 21.539Q46.6047 21.0334 46.6047 20.2912L46.6047 16.9282Q46.6047 16.2463 46.3496 15.8659Q46.0945 15.4856 45.5981 15.4856Q45.0322 15.4856 44.7725 15.903Q44.5173 16.3205 44.5173 16.9653L44.5173 20.2912Q44.5173 21.0334 44.0396 21.539Q43.5664 22.04 42.7314 22.04ZM51.204 17.0998Q51.204 15.5969 51.8024 14.4604Q52.4008 13.3193 53.5095 12.6745Q54.6227 12.0251 56.1628 12.0251Q57.3596 12.0251 58.3198 12.4658Q59.28 12.9018 59.832 13.6347Q60.384 14.363 60.384 15.2397Q60.384 16.1489 59.8505 16.5293Q59.3171 16.9096 58.2734 16.9096L54.2841 16.9096Q54.2841 17.406 54.6738 17.7307Q55.0634 18.0507 55.9911 18.0507Q56.4689 18.0507 56.8771 17.958Q57.2853 17.8606 57.7121 17.7771Q58.1388 17.6889 58.6723 17.6889Q59.433 17.6889 59.9247 18.2316Q60.4211 18.7697 60.4211 19.7207Q60.4211 20.8432 59.2707 21.4694Q58.1203 22.0957 56.2602 22.0957Q54.9474 22.0957 53.7971 21.5854Q52.6513 21.0705 51.9277 19.9619Q51.204 18.8486 51.204 17.0998ZM57.3596 16.2834Q57.6471 16.2834 57.5497 16.019Q57.4755 15.75 57.0951 15.467Q56.7148 15.1794 55.9911 15.1794Q55.1562 15.1794 54.748 15.5412Q54.3398 15.903 54.3398 16.2834L57.3596 16.2834ZM66.403 22.0957Q65.3964 22.0957 64.5893 21.6411Q63.7821 21.1865 63.3276 20.3422Q62.873 19.4934 62.873 18.3523L62.873 15.0078L62.1679 15.1052Q61.5973 15.1794 61.1613 14.7063Q60.7253 14.2331 60.7253 13.5095Q60.7253 12.7858 61.1613 12.322Q61.5973 11.8581 62.1679 11.9323L62.873 12.0251L62.8498 10.7356Q62.8312 9.97481 63.2858 9.5295Q63.745 9.08419 64.6171 9.08419Q65.4938 9.08419 65.967 9.5295Q66.4447 9.97481 66.403 10.7356L66.3659 12.0251L67.3725 11.8952Q68.4023 11.7421 68.9311 12.2663Q69.4645 12.7858 69.4645 13.5095Q69.4645 14.2331 68.9403 14.7573Q68.4208 15.2768 67.4328 15.1423L66.3659 15.0078L66.3659 17.842Q66.3659 18.0879 66.5375 18.2873Q66.7091 18.4868 66.955 18.4126Q67.2426 18.3337 67.5534 18.0879Q67.8688 17.842 68.3605 17.842Q69.1027 17.842 69.5016 18.3754Q69.9006 18.9043 69.9006 19.6836Q69.9006 20.2912 69.4738 20.8525Q69.047 21.4138 68.2677 21.757Q67.4884 22.0957 66.403 22.0957Z" fill="#76F0FF" />
    </g>
  </g>
</svg>