<?xml version="1.0" encoding="utf-8"?>
<svg width="21.967" height="23.41" viewBox="0 0 21.967 23.41" fill="none" xmlns="http://www.w3.org/2000/svg">
  <g id="lupa">
    <path id="Rectangle" d="M15.5 0C16.8809 0 18 1.1191 18 2.5L18 2.5C18 3.8809 16.8809 5 15.5 5L2.5 5C1.1191 5 0 3.8809 0 2.5L0 2.5C-9.53674e-07 1.1191 1.1191 9.53674e-07 2.5 9.53674e-07L15.5 0Z" fill="#893E0F" transform="matrix(0.682 -0.731 0.731 0.682 0 20)" />
    <g fill="#A8CCD7" fill-rule="evenodd" transform="translate(6.967 0)">
      <path id="Oval" d="M0 7.5C0 3.35786 3.35786 0 7.5 0C11.6421 0 15 3.35786 15 7.5C15 11.6421 11.6421 15 7.5 15C3.35786 15 0 11.6421 0 7.5Z" />
      <path d="M7.5 0C3.35786 0 0 3.35786 0 7.5C0 11.6421 3.35786 15 7.5 15C11.6421 15 15 11.6421 15 7.5C15 3.35786 11.6421 0 7.5 0ZM2.90381 12.0962Q1 10.1924 1 7.5Q0.999999 4.80761 2.90381 2.90381Q4.80761 1 7.5 1Q10.1924 1 12.0962 2.90381Q14 4.80761 14 7.5Q14 10.1924 12.0962 12.0962Q10.1924 14 7.5 14Q4.80761 14 2.90381 12.0962Z" fill="#C0C0C0" fill-rule="evenodd" />
    </g>
    <path id="Oval" d="M0 2C0 0.895431 0.895431 0 2 0C3.10457 0 4 0.895431 4 2C4 3.10457 3.10457 4 2 4C0.895431 4 0 3.10457 0 2Z" fill="#FFFFFF" fill-rule="evenodd" transform="translate(11.967 2)" />
  </g>
</svg>